<?xml version="1.0" encoding="UTF-8" standalone="no"?>
<!DOCTYPE svg PUBLIC "-//W3C//DTD SVG 1.1//EN" "http://www.w3.org/Graphics/SVG/1.1/DTD/svg11.dtd">
<!-- Created with Vectornator (http://vectornator.io/) -->
<svg height="100%" stroke-miterlimit="10" style="fill-rule:nonzero;clip-rule:evenodd;stroke-linecap:round;stroke-linejoin:round;" version="1.1" viewBox="0 0 7087.5 2551.5" width="100%" xml:space="preserve" xmlns="http://www.w3.org/2000/svg" xmlns:vectornator="http://vectornator.io" xmlns:xlink="http://www.w3.org/1999/xlink">
<defs/>
<g id="Layer-1" vectornator:layerName="Layer 1">
<path d="M567 0L567 283.5L283.5 283.5L283.5 567L0 567L0 850.5L283.5 850.5L283.5 1134L0 1134L0 1417.5L283.5 1417.5L283.5 1701L0 1701L0 1984.5L283.5 1984.5L283.5 2268L567 2268L567 2551.5L850.5 2551.5L850.5 2268L1134 2268L1134 2551.5L1417.5 2551.5L1417.5 2268L1701 2268L1701 2551.5L1984.5 2551.5L1984.5 2268L2268 2268L2268 1984.5L2551.5 1984.5L2551.5 1701L2268 1701L2268 1417.5L2551.5 1417.5L2551.5 1134L2268 1134L2268 850.5L2551.5 850.5L2551.5 567L2268 567L2268 283.5L1984.5 283.5L1984.5 0L1701 0L1701 283.5L1417.5 283.5L1417.5 0L1134 0L1134 283.5L850.5 283.5L850.5 0L567 0ZM567 567L1984.5 567L1984.5 1984.5L567 1984.5L567 567ZM3969 567L3969 1701L4819.5 1701L4819.5 850.5L4252.5 850.5L4252.5 567L3969 567ZM4252.5 1134L4536 1134L4536 1417.5L4252.5 1417.5L4252.5 1134ZM6237 567L6237 1701L6520.5 1701L6520.5 1134L6804 1134L6804 1701L7087.5 1701L7087.5 850.5L6520.5 850.5L6520.5 567L6237 567ZM850.5 850.5L850.5 1701L1701 1701L1701 1417.5L1134 1417.5L1134 1134L1701 1134L1701 850.5L850.5 850.5ZM2835 850.5L2835 1701L3685.5 1701L3685.5 850.5L3402 850.5L3402 1417.5L3118.5 1417.5L3118.5 850.5L2835 850.5ZM5103 850.5L5103 1134L5386.5 1134L5386.5 1701L5953.5 1701L5953.5 1417.5L5670 1417.5L5670 850.5L5103 850.5Z" fill="#ffffff" fill-rule="nonzero" opacity="1" stroke="none"/>
</g>
</svg>