<?xml version="1.0" encoding="UTF-8"?><svg id="a" xmlns="http://www.w3.org/2000/svg" viewBox="0 0 338.21 119.83"><defs><style>.b{fill:#FFFFFF;}</style></defs><path class="b" d="M41.16,56.13l21.13,18.22,21.13-18.22-21.13-18.22-21.13,18.22Zm29.67,3.68l-4.27-3.68-4.27-3.69-4.27,3.69,4.27,3.69,4.27,3.68-4.27,3.68-12.81-11.04,12.81-11.04,12.81,11.04-4.27,3.68Z"/><path class="b" d="M97.96,53.91l2.39-2.06-4.27-3.69-2.39,2.06-4.23-3.65,2.4-2.07-4.27-3.69-2.4,2.07-4.23-3.65,2.4-2.07-4.27-3.69-2.4,2.07-4.23-3.65,2.4-2.07-4.27-3.69-2.4,2.07-5.88-5.07-5.88,5.07-2.4-2.07-4.27,3.69v2.98l.67,.58-2.5,2.16-2.4-2.07-4.27,3.69v2.98l.67,.58-2.5,2.16-2.4-2.07-4.27,3.69v2.98l.67,.58-2.5,2.16-2.39-2.07-4.27,3.69v2.98l.67,.57-.84,.73v5.89l2.55,2.2-2.7,2.32v2.98l4.27,3.68v-2.98l4.27-3.68v2.72l2.65,2.28-2.65,2.28v2.98l4.27,3.68v-2.98h0l4.27-3.69v2.81l2.6,2.24-2.6,2.24v2.98l4.27,3.68v-2.98h0l4.27-3.69v2.89l2.55,2.2-2.55,2.2v2.98l4.27,3.68v-2.98h0l4.27-3.69v2.97l4.19,3.61v-5.89l38.24-32.98-2.57-2.22Zm-35.67,27.86l-29.74-25.64,29.74-25.64,29.74,25.64-29.74,25.64Z"/><polygon class="b" points="66.48 88.41 66.48 91.39 70.75 95.08 70.75 92.1 75.03 88.41 70.75 84.73 66.48 88.41"/><polygon class="b" points="75.03 81.13 75.03 84.11 79.3 87.79 79.3 84.81 83.58 81.13 79.3 77.44 75.03 81.13"/><polygon class="b" points="83.58 73.84 83.58 76.82 87.85 80.5 87.85 77.52 92.13 73.84 87.85 70.15 83.58 73.84"/><polygon class="b" points="92.13 66.55 92.13 69.53 96.4 73.21 96.4 70.23 100.68 66.55 96.4 62.86 92.13 66.55"/><polygon class="b" points="132.55 47.14 124.58 47.14 124.58 55.11 124.58 63.08 124.58 71.05 132.55 71.05 140.52 71.05 148.49 71.05 148.49 63.08 140.52 63.08 132.55 63.08 132.55 55.11 140.52 55.11 148.49 55.11 148.49 47.14 140.52 47.14 132.55 47.14"/><polygon class="b" points="181.96 55.11 181.96 63.08 173.99 63.08 173.99 55.11 173.99 47.14 166.02 47.14 166.02 55.11 166.02 63.08 166.02 71.05 173.99 71.05 181.96 71.05 189.93 71.05 189.93 63.08 189.93 55.11 189.93 47.14 181.96 47.14 181.96 55.11"/><path class="b" d="M215.43,47.14v-7.97h-7.97v31.87h23.91v-23.91h-15.94Zm7.97,15.94h-7.97v-7.97h7.97v7.97Z"/><polygon class="b" points="264.83 55.11 264.83 47.14 256.86 47.14 248.89 47.14 248.89 55.11 256.86 55.11 256.86 63.08 256.86 71.05 264.83 71.05 272.8 71.05 272.8 63.08 264.83 63.08 264.83 55.11"/><polygon class="b" points="306.27 47.14 298.3 47.14 298.3 39.17 290.33 39.17 290.33 47.14 290.33 55.11 290.33 63.08 290.33 71.05 298.3 71.05 298.3 63.08 298.3 55.11 306.27 55.11 306.27 63.08 306.27 71.05 314.24 71.05 314.24 63.08 314.24 55.11 314.24 47.14 306.27 47.14"/></svg>