<?xml version="1.0" encoding="UTF-8" standalone="no"?>
<!DOCTYPE svg PUBLIC "-//W3C//DTD SVG 1.1//EN" "http://www.w3.org/Graphics/SVG/1.1/DTD/svg11.dtd">
<!-- Created with Vectornator (http://vectornator.io/) -->
<svg stroke-miterlimit="10" style="fill-rule:nonzero;clip-rule:evenodd;stroke-linecap:round;stroke-linejoin:round;" version="1.1" viewBox="0 0 2500 2551.5" xml:space="preserve" xmlns="http://www.w3.org/2000/svg" xmlns:xlink="http://www.w3.org/1999/xlink">
<defs/>
<g id="Layer-1">
<path d="M555.556 0L555.556 277.778L277.778 277.778L277.778 555.556L0 555.556L0 833.333L277.778 833.333L277.778 1111.11L0 1111.11L0 1388.89L277.778 1388.89L277.778 1666.67L0 1666.67L0 1944.44L277.778 1944.44L277.778 2222.22L555.556 2222.22L555.556 2500L833.333 2500L833.333 2222.22L1111.11 2222.22L1111.11 2500L1388.89 2500L1388.89 2222.22L1666.67 2222.22L1666.67 2500L1944.44 2500L1944.44 2222.22L2222.22 2222.22L2222.22 1944.44L2500 1944.44L2500 1666.67L2222.22 1666.67L2222.22 1388.89L2500 1388.89L2500 1111.11L2222.22 1111.11L2222.22 833.333L2500 833.333L2500 555.556L2222.22 555.556L2222.22 277.778L1944.44 277.778L1944.44 0L1666.67 0L1666.67 277.778L1388.89 277.778L1388.89 0L1111.11 0L1111.11 277.778L833.333 277.778L833.333 0L555.556 0ZM555.556 555.556L1944.44 555.556L1944.44 1944.44L555.556 1944.44L555.556 555.556ZM833.333 833.333L833.333 1666.67L1666.67 1666.67L1666.67 1388.89L1111.11 1388.89L1111.11 1111.11L1666.67 1111.11L1666.67 833.333L833.333 833.333Z" fill="#000000" fill-rule="nonzero" opacity="1" stroke="none"/>
</g>
</svg>
